<svg width="109" height="126" viewBox="0 0 109 126" fill="none" xmlns="http://www.w3.org/2000/svg">
<path d="M92.9908 28.614C93.7022 29.0366 94.4945 29.1365 95.1524 28.9557C95.8295 28.8708 96.5231 28.4751 97.0184 27.8123C97.5289 27.1292 97.7105 26.3235 97.5782 25.6362C96.8817 25.704 96.1604 26.1065 95.6499 26.7896C95.2646 27.3052 95.0672 27.8906 95.0502 28.4422C94.8233 27.9391 94.4168 27.474 93.8633 27.1453C93.1301 26.7097 92.3098 26.6141 91.6404 26.8183C91.7814 27.5038 92.2576 28.1785 92.9908 28.614Z" fill="white"/>
<path d="M16.3006 28.614C15.5892 29.0366 14.7969 29.1365 14.139 28.9557C13.4619 28.8708 12.7683 28.4751 12.2729 27.8123C11.7625 27.1292 11.5809 26.3235 11.7132 25.6362C12.4097 25.704 13.131 26.1065 13.6415 26.7896C14.0268 27.3052 14.2242 27.8906 14.2412 28.4422C14.4681 27.9391 14.8746 27.474 15.4281 27.1453C16.1613 26.7097 16.9816 26.6141 17.651 26.8183C17.5101 27.5038 17.0338 28.1785 16.3006 28.614Z" fill="white"/>
<path d="M96.2515 31.2015C95.8661 31.717 95.6687 32.3024 95.6517 32.8541C95.4248 32.351 95.0183 31.8858 94.4648 31.5571C93.7317 31.1216 92.9113 31.026 92.2419 31.2302C92.3829 31.9156 92.8591 32.5904 93.5924 33.0259C94.3037 33.4485 95.0959 33.5484 95.754 33.3676C96.431 33.2826 97.1246 32.8869 97.62 32.2241C98.1304 31.541 98.312 30.7354 98.1797 30.0481C97.4832 30.1159 96.7619 30.5184 96.2515 31.2015Z" fill="white"/>
<path d="M13.0398 31.2015C13.4252 31.717 13.6226 32.3024 13.6396 32.8541C13.8665 32.351 14.273 31.8858 14.8265 31.5571C15.5597 31.1216 16.38 31.026 17.0494 31.2302C16.9085 31.9156 16.4322 32.5904 15.699 33.0259C14.9876 33.4485 14.1954 33.5484 13.5373 33.3676C12.8603 33.2826 12.1667 32.8869 11.6714 32.2241C11.1609 31.541 10.9793 30.7354 11.1116 30.0481C11.8082 30.1159 12.5294 30.5184 13.0398 31.2015Z" fill="white"/>
<path d="M96.7972 35.4446C96.3883 35.9917 96.179 36.6128 96.1609 37.1982C95.9202 36.6643 95.4888 36.1708 94.9016 35.822C94.1236 35.3599 93.2532 35.2585 92.543 35.4751C92.6925 36.2025 93.1979 36.9184 93.9758 37.3805C94.7306 37.8288 95.5712 37.9349 96.2694 37.7431C96.9878 37.6528 97.7237 37.2331 98.2493 36.5298C98.7909 35.805 98.9836 34.9501 98.8432 34.2209C98.1042 34.2928 97.3389 34.7199 96.7972 35.4446Z" fill="white"/>
<path d="M12.4941 35.4446C12.903 35.9917 13.1124 36.6128 13.1304 37.1982C13.3712 36.6643 13.8025 36.1708 14.3898 35.822C15.1677 35.3599 16.0381 35.2585 16.7484 35.4751C16.5988 36.2025 16.0935 36.9184 15.3155 37.3805C14.5608 37.8288 13.7201 37.9349 13.0219 37.7431C12.3035 37.6528 11.5677 37.2331 11.0421 36.5298C10.5004 35.805 10.3078 34.9501 10.4482 34.2209C11.1872 34.2928 11.9524 34.7199 12.4941 35.4446Z" fill="white"/>
<path d="M96.1122 42.0624C95.9396 41.4858 95.5674 40.9243 95.0167 40.489C94.2871 39.9123 93.4143 39.6904 92.6612 39.8142C92.7145 40.5756 93.1317 41.3738 93.8613 41.9505C94.5692 42.5101 95.411 42.7327 96.1484 42.6323C96.8925 42.6383 97.6994 42.3109 98.3306 41.666C98.9812 41.0015 99.2939 40.1568 99.2503 39.3949C98.4875 39.3674 97.6498 39.6982 96.9993 40.3628C96.5082 40.8644 96.2103 41.4686 96.1122 42.0624Z" fill="white"/>
<path d="M13.1792 42.0624C13.3517 41.4858 13.724 40.9243 14.2747 40.489C15.0042 39.9123 15.8771 39.6904 16.6302 39.8142C16.5769 40.5756 16.1596 41.3738 15.43 41.9505C14.7222 42.5101 13.8803 42.7327 13.1429 42.6323C12.3988 42.6383 11.5919 42.3109 10.9607 41.666C10.3102 41.0015 9.99742 40.1568 10.0411 39.3949C10.8038 39.3674 11.6416 39.6982 12.2921 40.3628C12.7832 40.8644 13.0811 41.4686 13.1792 42.0624Z" fill="white"/>
<path d="M96.9249 45.4558C96.3724 45.8951 95.9998 46.4608 95.8279 47.0411C95.7276 46.4443 95.4263 45.8376 94.9311 45.3346C94.275 44.6682 93.4317 44.3381 92.6649 44.3678C92.6232 45.1341 92.94 45.9825 93.5961 46.6489C94.2326 47.2954 95.0449 47.6224 95.7931 47.6142C96.5348 47.713 97.3807 47.4868 98.0909 46.9221C98.8227 46.3401 99.2401 45.5364 99.2914 44.7707C98.5339 44.6483 97.6568 44.8739 96.9249 45.4558Z" fill="white"/>
<path d="M12.3665 45.4558C12.919 45.8951 13.2916 46.4608 13.4635 47.0411C13.5638 46.4443 13.8651 45.8376 14.3604 45.3346C15.0163 44.6682 15.8597 44.3381 16.6265 44.3678C16.6682 45.1341 16.3514 45.9825 15.6953 46.6489C15.0588 47.2954 14.2465 47.6224 13.4983 47.6142C12.7566 47.713 11.9107 47.4868 11.2005 46.9221C10.4686 46.3401 10.0513 45.5364 10 44.7707C10.7575 44.6483 11.6346 44.8739 12.3665 45.4558Z" fill="white"/>
<path d="M95.8602 51.1729C95.1744 51.5584 94.6642 52.1149 94.3723 52.7229C94.3676 52.0484 94.1435 51.3275 93.6877 50.6863C93.0838 49.8369 92.2145 49.3243 91.3654 49.2212C91.1838 50.0569 91.3822 51.0465 91.986 51.896C92.5718 52.7202 93.4077 53.2238 94.2324 53.3473C95.031 53.5874 96.0019 53.4883 96.8833 52.9928C97.7917 52.482 98.3933 51.6716 98.5854 50.8382C97.7735 50.5693 96.7685 50.6622 95.8602 51.1729Z" fill="white"/>
<path d="M13.4312 51.1729C14.117 51.5584 14.6271 52.1149 14.9191 52.7229C14.9237 52.0484 15.1478 51.3275 15.6037 50.6863C16.2074 49.8369 17.0769 49.3243 17.9259 49.2212C18.1076 50.0569 17.9092 51.0465 17.3053 51.896C16.7195 52.7202 15.8836 53.2238 15.0589 53.3473C14.2603 53.5874 13.2894 53.4883 12.408 52.9928C11.4996 52.482 10.898 51.6716 10.7059 50.8382C11.5178 50.5693 12.5228 50.6622 13.4312 51.1729Z" fill="white"/>
<path d="M93.5782 56.8482C92.7643 57.142 92.11 57.6531 91.683 58.2598C91.8003 57.5273 91.6879 56.7046 91.3097 55.9263C90.8087 54.8954 89.9585 54.1816 89.0561 53.9158C88.7076 54.7895 88.7433 55.899 89.2443 56.93C89.7303 57.9303 90.5457 58.6283 91.4181 58.9119C92.2409 59.3171 93.3121 59.3857 94.3581 59.008C95.4362 58.6187 96.2358 57.8485 96.5954 56.9793C95.7633 56.5403 94.6563 56.4588 93.5782 56.8482Z" fill="white"/>
<path d="M15.7132 56.8482C16.5271 57.142 17.1814 57.6531 17.6083 58.2598C17.4911 57.5273 17.6035 56.7046 17.9817 55.9263C18.4826 54.8954 19.3328 54.1816 20.2352 53.9158C20.5838 54.7895 20.5481 55.899 20.0471 56.93C19.561 57.9303 18.7456 58.6283 17.8733 58.9119C17.0505 59.3171 15.9793 59.3857 14.9333 59.008C13.8551 58.6187 13.0556 57.8485 12.696 56.9793C13.528 56.5403 14.6351 56.4588 15.7132 56.8482Z" fill="white"/>
<path d="M90.8375 61.4607C90.0237 61.7546 89.3693 62.2656 88.9424 62.8724C89.0597 62.1398 88.9472 61.3171 88.569 60.5389C88.068 59.5079 87.2179 58.7941 86.3155 58.5283C85.9669 59.402 86.0026 60.5116 86.5036 61.5426C86.9897 62.5429 87.8052 63.2409 88.6774 63.5244C89.5003 63.9296 90.5714 63.9983 91.6175 63.6206C92.6956 63.2312 93.4952 62.4611 93.8547 61.5918C93.0227 61.1529 91.9156 61.0714 90.8375 61.4607Z" fill="white"/>
<path d="M18.4538 61.4607C19.2677 61.7546 19.922 62.2656 20.349 62.8724C20.2317 62.1398 20.3441 61.3171 20.7223 60.5389C21.2233 59.5079 22.0735 58.7941 22.9759 58.5283C23.3245 59.402 23.2887 60.5116 22.7878 61.5426C22.3017 62.5429 21.4862 63.2409 20.614 63.5244C19.7911 63.9296 18.72 63.9983 17.6739 63.6206C16.5958 63.2312 15.7962 62.4611 15.4366 61.5918C16.2686 61.1529 17.3758 61.0714 18.4538 61.4607Z" fill="white"/>
<path d="M87.9929 66.3257C87.1486 66.5148 86.435 66.9395 85.9351 67.4876C86.1437 66.7757 86.1357 65.9453 85.8585 65.1257C85.4913 64.0398 84.7377 63.2247 83.876 62.8474C83.4201 63.6703 83.3159 64.7755 83.6831 65.8613C84.0394 66.9149 84.7605 67.71 85.5901 68.1011C86.3555 68.6066 87.4095 68.8096 88.4947 68.5666C89.6133 68.3161 90.5035 67.6527 90.9696 66.8356C90.1995 66.2954 89.1114 66.0752 87.9929 66.3257Z" fill="white"/>
<path d="M21.2985 66.3257C22.1428 66.5148 22.8563 66.9395 23.3562 67.4876C23.1477 66.7757 23.1556 65.9453 23.4328 65.1257C23.8001 64.0398 24.5536 63.2247 25.4153 62.8474C25.8712 63.6703 25.9754 64.7755 25.6082 65.8613C25.2519 66.9149 24.5308 67.71 23.7012 68.1011C22.9359 68.6066 21.8819 68.8096 20.7966 68.5666C19.678 68.3161 18.7879 67.6527 18.3217 66.8356C19.0919 66.2954 20.18 66.0752 21.2985 66.3257Z" fill="white"/>
<path d="M84.3898 70.5034C83.5296 70.5969 82.773 70.9391 82.2149 71.4279C82.5018 70.7437 82.5869 69.9177 82.403 69.0722C82.1596 67.9521 81.5019 67.0578 80.6878 66.5864C80.1428 67.3531 79.9156 68.4398 80.159 69.5599C80.3952 70.6467 81.0228 71.5174 81.8035 71.9989C82.5075 72.5869 83.5321 72.9065 84.6378 72.7864C85.7773 72.6625 86.7361 72.103 87.2907 71.3432C86.5858 70.7202 85.5293 70.3796 84.3898 70.5034Z" fill="white"/>
<path d="M24.9015 70.5034C25.7617 70.5969 26.5182 70.9391 27.0763 71.4279C26.7894 70.7437 26.7045 69.9177 26.8882 69.0722C27.1317 67.9521 27.7893 67.0578 28.6034 66.5864C29.1485 67.3531 29.3757 68.4398 29.1322 69.5599C28.8961 70.6467 28.2684 71.5174 27.4877 71.9989C26.7838 72.5869 25.7591 72.9065 24.6535 72.7864C23.5139 72.6625 22.5551 72.103 22.0005 71.3432C22.7054 70.7202 23.762 70.3796 24.9015 70.5034Z" fill="white"/>
<path d="M80.5786 75.0945C79.6259 75.1457 78.7725 75.4771 78.1287 75.9817C78.4856 75.2458 78.6287 74.3414 78.4771 73.3996C78.2763 72.1519 77.6059 71.1277 76.7379 70.5601C76.0918 71.3714 75.7765 72.5541 75.9773 73.8019C76.1722 75.0126 76.8109 76.0088 77.6415 76.5858C78.3812 77.2754 79.4902 77.6887 80.7146 77.6228C81.9767 77.5548 83.0657 76.9962 83.722 76.193C82.9833 75.4649 81.8405 75.0266 80.5786 75.0945Z" fill="white"/>
<path d="M28.7128 75.0945C29.6655 75.1457 30.5189 75.4771 31.1626 75.9817C30.8057 75.2458 30.6626 74.3414 30.8143 73.3996C31.0151 72.1519 31.6854 71.1277 32.5535 70.5601C33.1995 71.3714 33.5148 72.5541 33.314 73.8019C33.1192 75.0126 32.4804 76.0088 31.6498 76.5858C30.9101 77.2754 29.8012 77.6887 28.5767 77.6228C27.3147 77.5548 26.2256 76.9962 25.5694 76.193C26.308 75.4649 27.4508 75.0266 28.7128 75.0945Z" fill="white"/>
<path d="M76.0836 78.846C75.13 78.8143 74.2511 79.0704 73.5659 79.5172C73.9854 78.8149 74.2065 77.9265 74.1373 76.975C74.0456 75.7146 73.4667 74.6361 72.6513 73.9951C71.9373 74.7473 71.5204 75.8981 71.612 77.1587C71.701 78.3817 72.2508 79.4297 73.0281 80.0766C73.7051 80.8278 74.774 81.3359 75.9995 81.3766C77.2627 81.4185 78.3962 80.9567 79.1197 80.2135C78.447 79.424 77.3467 78.888 76.0836 78.846Z" fill="white"/>
<path d="M33.2078 78.846C34.1612 78.8143 35.0402 79.0704 35.7254 79.5172C35.3059 78.8149 35.0848 77.9265 35.154 76.975C35.2457 75.7146 35.8246 74.6361 36.64 73.9951C37.3541 74.7473 37.7709 75.8981 37.6793 77.1587C37.5904 78.3817 37.0406 79.4297 36.2632 80.0766C35.5862 80.8278 34.5174 81.3359 33.2919 81.3766C32.0286 81.4185 30.8951 80.9567 30.1716 80.2135C30.8443 79.424 31.9447 78.888 33.2078 78.846Z" fill="white"/>
<path d="M70.49 82.524C69.5481 82.3729 68.6439 82.5164 67.9081 82.8736C68.4124 82.2297 68.7433 81.376 68.7941 80.4234C68.8614 79.1614 68.4226 78.0188 67.6941 77.2805C66.8912 77.9371 66.3331 79.0264 66.2658 80.2885C66.2004 81.513 66.6143 82.6217 67.3043 83.3611C67.8816 84.1915 68.8781 84.8297 70.0889 85.024C71.3368 85.2242 72.5193 84.9083 73.3304 84.2619C72.7623 83.3941 71.7379 82.7242 70.49 82.524Z" fill="white"/>
<path d="M38.8013 82.524C39.7433 82.3729 40.6474 82.5164 41.3833 82.8736C40.879 82.2297 40.5481 81.376 40.4972 80.4234C40.4299 79.1614 40.8688 78.0188 41.5972 77.2805C42.4001 77.9371 42.9582 79.0264 43.0255 80.2885C43.0909 81.513 42.6771 82.6217 41.9871 83.3611C41.4098 84.1915 40.4132 84.8297 39.2024 85.024C37.9545 85.2242 36.772 84.9083 35.9609 84.2619C36.529 83.3941 37.5535 82.7242 38.8013 82.524Z" fill="white"/>
<path d="M94.7158 25.7975C95.1418 25.1214 95.3044 24.2808 95.0969 23.4439C94.8894 22.6071 94.3529 21.9398 93.6604 21.541C93.2344 22.2171 93.0718 23.0578 93.2793 23.8947C93.4867 24.7315 94.0233 25.3988 94.7158 25.7975Z" fill="white"/>
<path d="M14.5755 25.7975C14.1496 25.1214 13.9869 24.2808 14.1945 23.4439C14.4019 22.6071 14.9385 21.9398 15.6309 21.541C16.0569 22.2171 16.2195 23.0578 16.012 23.8947C15.8046 24.7315 15.268 25.3988 14.5755 25.7975Z" fill="white"/>
<path d="M86.4642 31.15C83.0551 16.7782 84.7931 10.6952 84.7931 10.6952C84.7931 10.6952 64.4052 6.41714 54.7125 0C54.6903 0.0126023 54.6681 0.0253483 54.6457 0.0380223C54.6234 0.0253483 54.6011 0.0126023 54.5789 0C44.8863 6.41714 24.4983 10.6952 24.4983 10.6952C24.4983 10.6952 26.2363 16.7782 22.8271 31.15C20.9041 39.2571 20.8219 62.6768 54.6457 77.1308C88.4695 62.6768 88.3873 39.2571 86.4642 31.15ZM46.1766 41.7238C45.3951 44.6799 42.0656 46.9033 38.068 46.9033C34.0343 46.9033 30.6771 44.6408 29.9352 41.6448H29.9783L29.9368 41.632L35.424 23.8639H36.5429L31.0517 41.6448H45.0824L39.5912 23.8639H40.7101L46.2214 41.71L46.1766 41.7238ZM62.3107 62.7681H46.9807V58.8019H52.6849V22.215H33.4333V20.3433H52.6849V17.7586H56.6065V20.3433H75.8581V22.215H56.6065V58.8019H62.3107V62.7681ZM71.2234 46.9033C67.2258 46.9033 63.8963 44.6799 63.1148 41.7238L63.07 41.71L68.5813 23.8639H69.7002L64.209 41.6448H78.2397L72.7484 23.8639H73.8674L79.3546 41.632L79.3132 41.6448H79.3563C78.6143 44.6408 75.2571 46.9033 71.2234 46.9033Z" fill="white"/>
<path d="M66.2789 85.3983C65.3369 85.2471 64.4327 85.3907 63.6969 85.7479C64.2012 85.104 64.5321 84.2503 64.5829 83.2977C64.6502 82.0357 64.2114 80.8931 63.4829 80.1548C62.68 80.8114 62.122 81.9007 62.0546 83.1628C62.003 84.1296 62.355 85.1322 62.8009 85.8298C62.2663 86.2165 61.0301 86.8748 59.4286 87.2503C59.6488 87.4993 59.7669 87.8595 59.8241 88.1143C60.9598 87.8107 62.211 87.3058 63.2633 86.4534C63.8558 87.1754 64.7762 87.7215 65.8777 87.8982C67.1256 88.0984 68.3081 87.7826 69.1192 87.1362C68.5511 86.2683 67.5267 85.5985 66.2789 85.3983Z" fill="white"/>
<path d="M49.7955 87.235C48.2265 86.8571 47.0177 86.2111 46.4905 85.8298C46.9364 85.1322 47.2885 84.1296 47.2368 83.1628C47.1695 81.9007 46.6114 80.8114 45.8085 80.1548C45.0801 80.8931 44.6412 82.0357 44.7085 83.2977C44.7593 84.2503 45.0902 85.104 45.5945 85.7479C44.8587 85.3907 43.9546 85.2471 43.0126 85.3983C41.7648 85.5985 40.7403 86.2683 40.1722 87.1362C40.9833 87.7826 42.1658 88.0984 43.4137 87.8982C44.5152 87.7215 45.4357 87.1754 46.0282 86.4534C47.0733 87.3001 48.3146 87.8035 49.4442 88.1079C49.4944 87.8666 49.598 87.5158 49.7955 87.235Z" fill="white"/>
<path d="M59.234 88.2843C59.1577 87.8519 58.9906 87.6263 58.7548 87.3685C58.5527 87.1692 58.2949 87.0074 57.9685 86.9213C57.161 86.7079 56.4201 86.9888 55.8854 87.3211C55.9956 86.9015 56.0608 86.4483 56.0391 85.9848C55.9581 84.2085 54.9979 83.0366 54.6457 82.8555C54.2934 83.0366 53.3333 84.2085 53.2522 85.9848C53.2306 86.4483 53.2958 86.9015 53.406 87.3211C52.8712 86.9888 52.1304 86.7079 51.3228 86.9213C50.9901 87.0091 50.7271 87.1742 50.5233 87.3788C50.3258 87.5594 50.159 87.8615 50.0551 88.3043C49.9489 88.9696 50.2388 89.652 50.9234 89.8432C52.2203 90.2052 50.7219 89.4581 51.917 88.81C52.7141 88.3764 53.6103 88.6078 53.5558 89.7838C53.5214 90.5443 53.1485 91.4672 52.2487 91.1389C51.8453 90.9906 52.3839 92.0845 53.125 92.1158C53.3817 92.1257 54.0939 92.0272 54.1906 91.5048C54.1906 92.1649 54.4269 93.0043 54.6457 93.1862C54.8644 93.0043 55.1008 92.1649 55.1008 91.5048C55.1974 92.0272 55.9096 92.1257 56.1663 92.1158C56.9074 92.0845 57.446 90.9906 57.0426 91.1389C56.1428 91.4672 55.7699 90.5443 55.7355 89.7838C55.6811 88.6078 56.5772 88.3764 57.3743 88.81C58.5694 89.4581 57.071 90.2052 58.368 89.8432C59.0594 89.6501 59.3494 88.9558 59.234 88.2843Z" fill="white"/>
<path d="M0.358594 101L2.77859 105.35V108H3.68859V105.26L6.14859 101H5.60859L3.46859 104.69H3.42859L1.38859 101H0.358594ZM8.94531 104.5C8.94531 104.873 9.01531 105.273 9.15531 105.7C9.30198 106.12 9.52865 106.51 9.83531 106.87C10.142 107.23 10.532 107.53 11.0053 107.77C11.4786 108.003 12.0453 108.12 12.7053 108.12C13.152 108.12 13.5553 108.067 13.9153 107.96C14.282 107.847 14.6086 107.697 14.8953 107.51C15.1886 107.323 15.442 107.11 15.6553 106.87C15.8686 106.623 16.042 106.367 16.1753 106.1C16.3153 105.827 16.4186 105.553 16.4853 105.28C16.5586 105.007 16.5953 104.747 16.5953 104.5C16.5953 104.127 16.5186 103.73 16.3653 103.31C16.212 102.883 15.9753 102.49 15.6553 102.13C15.3353 101.77 14.9286 101.473 14.4353 101.24C13.9486 101 13.372 100.88 12.7053 100.88C12.0453 100.88 11.4786 100.997 11.0053 101.23C10.532 101.463 10.142 101.76 9.83531 102.12C9.52865 102.473 9.30198 102.863 9.15531 103.29C9.01531 103.717 8.94531 104.12 8.94531 104.5ZM9.92531 104.5C9.92531 104.033 9.99531 103.607 10.1353 103.22C10.282 102.827 10.4786 102.49 10.7253 102.21C10.9786 101.93 11.2753 101.713 11.6153 101.56C11.9553 101.4 12.3253 101.32 12.7253 101.32C13.1186 101.32 13.4886 101.4 13.8353 101.56C14.1886 101.713 14.4953 101.93 14.7553 102.21C15.022 102.49 15.232 102.827 15.3853 103.22C15.5386 103.607 15.6153 104.033 15.6153 104.5C15.6153 104.967 15.5386 105.397 15.3853 105.79C15.232 106.177 15.022 106.51 14.7553 106.79C14.4953 107.07 14.1886 107.29 13.8353 107.45C13.4886 107.603 13.1186 107.68 12.7253 107.68C12.3253 107.68 11.9553 107.603 11.6153 107.45C11.2753 107.29 10.9786 107.07 10.7253 106.79C10.4786 106.51 10.282 106.177 10.1353 105.79C9.99531 105.397 9.92531 104.967 9.92531 104.5ZM19.8977 101V105.3C19.8977 105.573 19.9243 105.877 19.9777 106.21C20.031 106.537 20.1577 106.843 20.3577 107.13C20.5577 107.41 20.8543 107.647 21.2477 107.84C21.641 108.027 22.1777 108.12 22.8577 108.12C23.2843 108.12 23.661 108.053 23.9877 107.92C24.321 107.787 24.5977 107.603 24.8177 107.37C25.0443 107.137 25.2143 106.867 25.3277 106.56C25.441 106.247 25.4977 105.913 25.4977 105.56V101H25.0577V105.23C25.0577 105.377 25.0543 105.527 25.0477 105.68C25.041 105.827 25.021 105.977 24.9877 106.13C24.9543 106.277 24.901 106.423 24.8277 106.57C24.761 106.717 24.661 106.863 24.5277 107.01C24.2877 107.27 24.0177 107.447 23.7177 107.54C23.4177 107.633 23.1043 107.68 22.7777 107.68C22.4977 107.68 22.2477 107.637 22.0277 107.55C21.8143 107.463 21.611 107.333 21.4177 107.16C21.2643 107.027 21.1477 106.893 21.0677 106.76C20.9877 106.627 20.9277 106.497 20.8877 106.37C20.8477 106.237 20.8243 106.103 20.8177 105.97C20.811 105.837 20.8077 105.703 20.8077 105.57V101H19.8977ZM29.4949 101V108H30.4049V104.91H30.8449C31.0316 104.91 31.1849 104.927 31.3049 104.96C31.4316 104.993 31.5449 105.05 31.6449 105.13C31.7449 105.21 31.8383 105.313 31.9249 105.44C32.0116 105.567 32.1149 105.723 32.2349 105.91L33.0249 107.08C33.1249 107.233 33.2216 107.373 33.3149 107.5C33.4149 107.627 33.5216 107.737 33.6349 107.83C33.7483 107.917 33.8749 107.987 34.0149 108.04C34.1616 108.093 34.3349 108.12 34.5349 108.12C34.6816 108.12 34.8016 108.113 34.8949 108.1C34.9883 108.087 35.0816 108.053 35.1749 108V107.63C35.1416 107.637 35.1083 107.643 35.0749 107.65C35.0416 107.65 35.0083 107.65 34.9749 107.65C34.8349 107.65 34.7116 107.63 34.6049 107.59C34.4983 107.55 34.3983 107.493 34.3049 107.42C34.2116 107.34 34.1216 107.247 34.0349 107.14C33.9483 107.027 33.8583 106.9 33.7649 106.76C33.4849 106.353 33.2683 106.03 33.1149 105.79C32.9616 105.543 32.8383 105.353 32.7449 105.22C32.6583 105.087 32.5849 104.99 32.5249 104.93C32.4716 104.87 32.4049 104.82 32.3249 104.78L32.2249 104.73V104.69C32.5449 104.67 32.8183 104.6 33.0449 104.48C33.2783 104.36 33.4683 104.21 33.6149 104.03C33.7616 103.85 33.8683 103.657 33.9349 103.45C34.0016 103.237 34.0349 103.03 34.0349 102.83C34.0349 102.65 33.9983 102.453 33.9249 102.24C33.8583 102.027 33.7383 101.83 33.5649 101.65C33.3983 101.463 33.1683 101.31 32.8749 101.19C32.5816 101.063 32.2116 101 31.7649 101H29.4949ZM30.4049 101.44H31.4149C31.6683 101.44 31.8949 101.477 32.0949 101.55C32.3016 101.623 32.4783 101.727 32.6249 101.86C32.7716 101.987 32.8816 102.14 32.9549 102.32C33.0349 102.5 33.0749 102.697 33.0749 102.91C33.0749 103.09 33.0383 103.273 32.9649 103.46C32.8983 103.64 32.7949 103.807 32.6549 103.96C32.5149 104.107 32.3416 104.227 32.1349 104.32C31.9349 104.413 31.7016 104.46 31.4349 104.46H30.4049V101.44ZM50.0588 106.71C49.3788 107.35 48.5721 107.67 47.6388 107.67C47.1188 107.67 46.6588 107.58 46.2588 107.4C45.8588 107.22 45.5254 106.98 45.2588 106.68C44.9921 106.38 44.7888 106.033 44.6488 105.64C44.5154 105.247 44.4488 104.837 44.4488 104.41C44.4488 103.957 44.5188 103.543 44.6588 103.17C44.8054 102.79 45.0088 102.463 45.2688 102.19C45.5288 101.917 45.8354 101.703 46.1888 101.55C46.5488 101.397 46.9388 101.32 47.3588 101.32C47.6454 101.32 47.9054 101.353 48.1388 101.42C48.3788 101.487 48.5888 101.573 48.7688 101.68C48.9554 101.787 49.1054 101.91 49.2188 102.05C49.3388 102.183 49.4221 102.32 49.4688 102.46H50.2088C50.1088 102.233 49.9788 102.023 49.8188 101.83C49.6654 101.637 49.4721 101.47 49.2388 101.33C49.0054 101.19 48.7321 101.08 48.4188 101C48.1054 100.92 47.7488 100.88 47.3488 100.88C46.7688 100.88 46.2388 100.963 45.7588 101.13C45.2854 101.297 44.8788 101.537 44.5388 101.85C44.1988 102.157 43.9354 102.53 43.7488 102.97C43.5621 103.403 43.4688 103.89 43.4688 104.43C43.4688 104.897 43.5421 105.353 43.6888 105.8C43.8421 106.24 44.0754 106.633 44.3888 106.98C44.7021 107.32 45.1021 107.597 45.5888 107.81C46.0754 108.017 46.6554 108.12 47.3288 108.12C47.7554 108.12 48.1354 108.08 48.4688 108C48.8088 107.92 49.1021 107.823 49.3488 107.71C49.6021 107.59 49.8121 107.463 49.9788 107.33C50.1454 107.197 50.2721 107.08 50.3588 106.98L50.0588 106.71ZM53.0566 104.5C53.0566 104.873 53.1266 105.273 53.2666 105.7C53.4133 106.12 53.64 106.51 53.9466 106.87C54.2533 107.23 54.6433 107.53 55.1166 107.77C55.59 108.003 56.1566 108.12 56.8166 108.12C57.2633 108.12 57.6666 108.067 58.0266 107.96C58.3933 107.847 58.72 107.697 59.0066 107.51C59.3 107.323 59.5533 107.11 59.7666 106.87C59.98 106.623 60.1533 106.367 60.2866 106.1C60.4266 105.827 60.53 105.553 60.5966 105.28C60.67 105.007 60.7066 104.747 60.7066 104.5C60.7066 104.127 60.63 103.73 60.4766 103.31C60.3233 102.883 60.0866 102.49 59.7666 102.13C59.4466 101.77 59.04 101.473 58.5466 101.24C58.06 101 57.4833 100.88 56.8166 100.88C56.1566 100.88 55.59 100.997 55.1166 101.23C54.6433 101.463 54.2533 101.76 53.9466 102.12C53.64 102.473 53.4133 102.863 53.2666 103.29C53.1266 103.717 53.0566 104.12 53.0566 104.5ZM54.0366 104.5C54.0366 104.033 54.1066 103.607 54.2466 103.22C54.3933 102.827 54.59 102.49 54.8366 102.21C55.09 101.93 55.3866 101.713 55.7266 101.56C56.0666 101.4 56.4366 101.32 56.8366 101.32C57.23 101.32 57.6 101.4 57.9466 101.56C58.3 101.713 58.6066 101.93 58.8666 102.21C59.1333 102.49 59.3433 102.827 59.4966 103.22C59.65 103.607 59.7266 104.033 59.7266 104.5C59.7266 104.967 59.65 105.397 59.4966 105.79C59.3433 106.177 59.1333 106.51 58.8666 106.79C58.6066 107.07 58.3 107.29 57.9466 107.45C57.6 107.603 57.23 107.68 56.8366 107.68C56.4366 107.68 56.0666 107.603 55.7266 107.45C55.3866 107.29 55.09 107.07 54.8366 106.79C54.59 106.51 54.3933 106.177 54.2466 105.79C54.1066 105.397 54.0366 104.967 54.0366 104.5ZM64.409 108V101H65.319V107.45H68.929V108H64.409ZM72.4246 108V101H73.3346V107.45H76.9446V108H72.4246ZM80.4402 101V108H84.9602V107.45H81.3502V104.52H84.4502V104.06H81.3502V101.55H84.9602V101H80.4402ZM94.8259 104.88H92.8459V105.29H93.9659V107.1C93.6659 107.293 93.3592 107.437 93.0459 107.53C92.7325 107.623 92.3759 107.67 91.9759 107.67C91.4492 107.67 90.9892 107.59 90.5959 107.43C90.2025 107.27 89.8759 107.05 89.6159 106.77C89.3559 106.483 89.1592 106.147 89.0259 105.76C88.8992 105.367 88.8359 104.937 88.8359 104.47C88.8359 104.01 88.8959 103.587 89.0159 103.2C89.1425 102.813 89.3292 102.48 89.5759 102.2C89.8225 101.92 90.1225 101.703 90.4759 101.55C90.8359 101.397 91.2525 101.32 91.7259 101.32C92.0392 101.32 92.3325 101.353 92.6059 101.42C92.8792 101.487 93.1225 101.573 93.3359 101.68C93.5492 101.787 93.7225 101.91 93.8559 102.05C93.9959 102.183 94.0859 102.32 94.1259 102.46H94.8459C94.7859 102.313 94.6825 102.15 94.5359 101.97C94.3959 101.783 94.2025 101.61 93.9559 101.45C93.7092 101.29 93.4025 101.157 93.0359 101.05C92.6759 100.937 92.2492 100.88 91.7559 100.88C91.1892 100.88 90.6659 100.96 90.1859 101.12C89.7125 101.28 89.3025 101.51 88.9559 101.81C88.6092 102.11 88.3392 102.48 88.1459 102.92C87.9525 103.353 87.8559 103.847 87.8559 104.4C87.8559 104.873 87.9292 105.333 88.0759 105.78C88.2292 106.22 88.4592 106.617 88.7659 106.97C89.0792 107.317 89.4759 107.597 89.9559 107.81C90.4359 108.017 91.0092 108.12 91.6759 108.12C92.1759 108.12 92.6192 108.067 93.0059 107.96C93.3925 107.847 93.7125 107.723 93.9659 107.59V108H94.8259V104.88ZM98.6297 101V108H103.15V107.45H99.5397V104.52H102.64V104.06H99.5397V101.55H103.15V101H98.6297ZM41.2902 115V120.35H41.2502L35.7002 114.88H35.6502V122H36.1102V116.65H36.1502L41.7002 122.12H41.7502V115H41.2902ZM50.0363 119.94L50.9963 122H51.9663L48.7063 115H48.2063L45.2463 122H45.7063L46.5863 119.94H50.0363ZM49.8263 119.49H46.7763L48.2163 116.12H48.2563L49.8263 119.49ZM56.1505 115H55.4705V122H55.9105V116.29H55.9505L59.0405 122.12H59.2205L62.3805 116.33H62.4205V122H63.3305V115H62.6405L59.4005 121.01H59.3605L56.1505 115ZM67.7342 115V122H72.2542V121.45H68.6442V118.52H71.7442V118.06H68.6442V115.55H72.2542V115H67.7342Z" fill="white"/>
</svg>
